/* XPM */
static char *bitcoin128[] = {
/* columns rows colors chars-per-pixel */
"128 80 52 1 ",
"  c #176EBA",
". c #1B70BB",
"X c #2375BD",
"o c #2778BF",
"O c #2979BF",
"+ c #2C7BC0",
"@ c #327EC2",
"# c #3580C3",
"$ c #3C85C5",
"% c #4087C6",
"& c #4389C7",
"* c #468BC8",
"= c #4A8EC9",
"- c #4E90CA",
"; c #5494CC",
": c #5997CD",
"> c #5D99CF",
", c #659ED1",
"< c #67A0D2",
"1 c #6CA3D3",
"2 c #72A6D5",
"3 c #79ABD7",
"4 c #7CADD8",
"5 c #80AFD9",
"6 c #84B2DA",
"7 c #8BB6DC",
"8 c #8EB8DD",
"9 c #92BBDF",
"0 c #97BDE0",
"q c #99BFE0",
"w c #9DC2E2",
"e c #A2C5E3",
"r c #A7C8E5",
"t c #ACCBE6",
"y c #B0CDE7",
"u c #B5D1E9",
"i c #BCD5EB",
"p c #C0D7EC",
"a c #C4DAED",
"s c #C9DDEF",
"d c #CCDFF0",
"f c #CEE0F0",
"g c #D4E4F2",
"h c #D8E7F4",
"j c #DCE9F5",
"k c #E3EEF7",
"l c #E6EFF8",
"z c #E7F0F8",
"x c #ECF3F9",
"c c #F1F6FB",
"v c #F6F9FC",
"b c #FFFFFF",
/* pixels */
"bbbbbbbbbbbbbbbbbbbbbbbbbbbbbbbbbbbbbbbbbbbbbbbbbbbbbbbbbbbbbbbbbbbbbbbbbbbbbbbbbbbbbbbbbbbbbbbbbbbbbbbbbbbbbbbbbbbbbbbbbbbbbbbb",
"bbbbbbbbbbbbbbbbbbbbbbbbbbbbbbbbbbbbbbbbbbbbbbbbbbbbsiiiiiiiuaxbbbbbcgfsaaphbbbbbbbbbbbbbbbbbbbbbbbbbbbbbbbbbbbbbbbbbbbbbbbbbbbb",
"bbbbbbbbbbbbbbbbbbbbbbbbbbbbbbbbbbbbbbbbbbbbbbbbbbc9+X.XXXXXXX*9jbbbx6+XXXX#tbbbbbbbbbbbbbbbbbbbbbbbbbbbbbbbbbbbbbbbbbbbbbbbbbbb",
"bbbbbbbbbbbbbbbbbbbbbbbbbbbbbbbbbbbbbbbbbbbbbbbbbx3. . . . . . .$0xbbvr@ .  O9vbbbbbbbbbbbbbbbbbbbbbbbbbbbbbbbbbbbbbbbbbbbbbbbbb",
"bbbbbbbbbbbbbbbbbbbbbbbbbbbbbbbbbbbbbbbbbbbbbbbbh:....  .  ....  .;abbbs-... X3xbbbbbbbbbbbbbbbbbbbbbbbbbbbbbbbbbbbbbbbbbbbbbbbb",
"bbbbbbbbbbbbbbbbbbbbbbbbbbbbbbbbbbbbbbbbbbbbbbba* .. X$%$%$....  . @evbbk1.... :hbbbbbbbbbbbbbbbbbbbbbbbbbbbbbbbbbbbbbbbbbbbbbbb",
"bbbbbbbbbbbbbbbbbbbbbbbbbbbbbbbbbbbbbbbbbbbbbbr@ .. +exxxj1. .X,>X  X7vbbc7X... *abbbbbbbbbbbbbbbbbbbbbbbbbbbbbbbbbbbbbbbbbbbbbb",
"bbbbbbbbbbbbbbbbbbbbbbbbbbbbbbbbbbbbbbbbbbbbc8X .. %ibbbv6X. @wvc9+  X9vbbbt# .. #rbbbbbbbbbbbbbbbbbbbbbbbbbbbbbbbbbbbbbbbbbbbbb",
"bbbbbbbbbbbbbbbbbbbbbbbbbbbbbbbbbbbbbbbbbbbx2.... ;gbbbb0X  $ibbbby#. Xtbbbbs* .. o8vbbbbbbbbbbbbbbbbbbbbbbbbbbbbbbbbbbbbbbbbbbb",
"bbbbbbbbbbbbbbbbbbbbbbbbbbbbbbbbbbbbbbbbbbg:. ...2zbbbbi+ .$sbbbbbbu@..#gbbbbh>... X2zbbbbbbbbbbbbbbbbbbbbbbbbbbbbbbbbbbbbbbbbbb",
"bbbbbbbbbbbbbbbbbbbbbbbbbbbbbbbbbbbbbbbbbi% .. X7cbbbbx; .+ibbbbbbbbrO. ,vbbbbx3... .:hbbbbbbbbbbbbbbbbbbbbbbbbbbbbbbbbbbbbbbbbb",
"bbbbbbbbbbbbbbbbbbbbbbbbbbbbbbbbbbbbbbbbe@ .. @rbbbbbb0...0bbbbbbbbbb6. .rbbbbbv9O .. %abbbbbbbbbbbbbbbbbbbbbbbbbbbbbbbbbbbbbbbb",
"bbbbbbbbbbbbbbbbbbbbbbbbbbbbbbbbbbbbbbc7X... %abbbbbbk%. >cbbbbbbbbbbz=  -xbbbbbbr@ .. @rbbbbbbbbbbbbbbbbbbbbbbbbbbbbbbbbbbbbbbb",
"bbbbbbbbbbbbbbbbbbbbbbbbbbbbbbbbbbbbbx1. .. :gbbbbbbbq  +ibbbbbbbbbbbbrX Xtbbbbbbba% ...X8vbbbbbbbbbbbbbbbbbbbbbbbbbbbbbbbbbbbbb",
"bbbbbbbbbbbbbbbbbbbbbbbbbbbbbbbbbbbbbaX ..X2xbbbbbbbc:=8fbbbbbva0ucbbbx=  <bbbbbbbbg;....#lbbbbbbbbbbbbbbbbbbbbbbbbbbbbbbbbbbbbb",
"bbbbbbbbbbbbbbbbbbbbbbbbbbbbbbbbbbbbbj#. .6vbbbbbbbbxacbbbbvlg8+ X3vbbb9..#hbbbbbbbbl, . ;cbbbbbbbbbbbbbbbbbbbbbbbbbbbbbbbbbbbbb",
"bbbbbbbbbbbbbbbbbbbbbbbbbbbbbbbbbbbbbc; ..ubbbbbbbbbbbbbvs9>$+... Xsbbbf+ .ybbbbbbbbb7 . 3bbbbbbbbbbbbbbbbbbbbbbbbbbbbbbbbbbbbbb",
"bbbbbbbbbbbbbbbbbbbbbbbbbbbbbbbbbbbbbb1 . 8bbbbbbbbbbbxr:+    ....Xibbbc= .7bbbbbbbbb< . qbbbbbbbbbbbbbbbbbbbbbbbbbbbbbbbbbbbbbb",
"bbbbbbbbbbbbbbbbbbbbbbbbbbbbbbbbbbbbbb8 . 1bbbbbbbbbvt-X    XO+   =lbbbb<  2bbbbbbbbc= .Xubbbbbbbbbbbbbbbbbbbbbbbbbbbbbbbbbbbbbb",
"bbbbbbbbbbbbbbbbbbbbbbbbbbbbbbbbbbbbbbu.. =cbbbbbbbh<X   O;6ygg3=<dbbbbb6  >vbbbbbbbk#. +gbbbbbbbbbbbbbbbbbbbbbbbbbbbbbbbbbbbbbb",
"bbbbbbbbbbbbbbbbbbbbbbbbbbbbbbbbbbbbbbg+ .#jbbbbbbu%   @3axbbbbbcvbbbbbb9  :vbbbbbbbaX. %xbbbbbbbbbbbbbbbbbbbbbbbbbbbbbbbbbbbbbb",
"bbbbbbbbbbbbbbbbbbbbbbbbbbbbbbbbbbbbbbx% .Xabbbbbe+  X<fbbbbbbbbbbbbbbbbq. ;vbbbbbbbr . ,vbbbbbbbbbbbbbbbbbbbbbbbbbbbbbbbbbbbbbb",
"bbbbbbbbbbbbbbbbbbbbbbbbbbbbbbbbbbbbbbv> ..ebbbbrO. +wvbbbbbbbbbbbbbbbbbq  >vbxcbbbb6 . 4bbbbbbbbbbbbbbbbbbbbbbbbbbbbbbbbbbbbbbb",
"bbbbbbbbbbbbbbbbbbbbbbbbbbbbbbbbbbbbbbb4 . 4bbbuO .#ubbbbbbbbbbbbbbbbbbb8  <bbe6vbbb, ..rbbbbbbbbbbbbbbbbbbbbbbbbbbbbbbbbbbbbbbb",
"bbbbbbbbbbbbbbbbbbbbbbbbbbbbbbbbbbbbbbbr.. 7bbh$  @ibbbbbbbbbbbbbbbbbbbb4  6bb3.ebbx* .Xsbbbbbbbbbbbbbbbbbbbbbbbbbbbbbbbbbbbbbbb",
"bbbbbbbbbbbbbbbbbbbbbbbbbbbbbbbbbbbbbbbao $jbv< .Otbbbbbbbbbbbbbbbbbbbbv>  ebv; @sbh@  #jbbbbbbbbbbbbbbbbbbbbbbbbbbbbbbbbbbbbbbb",
"bbbbbbbbbbbbbbbbbbbbbbbbbbbbbbbbbbbbbbbk#.0bbuX..6bbbbbbbbbbbbbbbbbbbbbz$ Xsbv<  >vpX. =cbbbbbbbbbbbbbbbbbbbbbbbbbbbbbbbbbbbbbbb",
"bbbbbbbbbbbbbbbbbbbbbbbbbbbbbbbbbbbbbbbc;#kbc: .=xbbbbbbbbbbbbbbbbbbbbk6X %xbbg# Xye.. 1bbbbbbbbbbbbbbbbbbbbbbbbbbbbbbbbbbbbbbbb",
"bbbbbbbbbbbbbbbbbbbbbbbbbbbbbbbbbbbbbbbb12bbaX..rbbbbbblfzbbbbbbbbbbbk;   1bbbb9. ;1 ..8bbbbbbbbbbbbbbbbbbbbbbbbbbbbbbbbbbbbbbbb",
"bbbbbbbbbbbbbbbbbbbbbbbbbbbbbbbbbbbbbbbbqybb3. -xbbbbby$O&ibbbbbbbbbb0  . ,bbbbx=.X+...ybbbbbbbbbbbbbbbbbbbbbbbbbbbbbbbbbbbbbbbb",
"bbbbbbbbbbbbbbbbbbbbbbbbbbbbbbbbbbbbbbbbshbl$  9bbbbbk$ . &xbbbbbbbbb7 .. :vbbbb9 ....Ofbbbbbbbbbbbbbbbbbbbbbbbbbbbbbbbbbbbbbbbb",
"bbbbbbbbbbbbbbbbbbbbbbbbbbbbbbbbbbbbbbbbvbbiX.+gbbbbbsX.. +gbbbbbbbbbs@  XebbbbbgO .. $zbbbbbbbbbbbbbbbbbbbbbbbbbbbbbbbbbbbbbbbb",
"bbbbbbbbbbbbbbbbbbbbbbbbbbbbbbbbbbbbbbbbbbb9  -cbbbbbk$ ..+sbbbbbbbbbbi,:wvbbbbbx= .. ;vbbbbbbbbbbbbbbbbbbbbbbbbbbbbbbbbbbbbbbbb",
"bbbbbbbbbbbbbbbbbbbbbbbbbbbbbbbbbbbbbbbbbbb1  1bbbbbbby$...;kbbbbbbbbbbvvbbbbbbbb, .. 3bbbbbbbbbbbbbbbbbbbbbbbbbbbbbbbbbbbbbbbbb",
"bbbbbbbbbbbbbbbbbbbbbbbbbbbbbbbbbbbbbbbbbbv;  7bbbbbbbbk9X .:hbbbbbbbbbbbbbbbbbbb3 .. wbbbbbbbbbbbbbbbbbbbbbbbbbbbbbbbbbbbbbbbbb",
"bbbbbbbbbbbbbbbbbbbbbbbbbbbbbbbbbbbbbbbbbbc=  wbbbbbbbbbv3 . &ubbbbbbbbbbbbbbbbbb6 ..Xibbbbbbbbbbbbbbbbbbbbbbbbbbbbbbbbbbbbbbbbb",
"bbbbbbbbbbbbbbbbbbbbbbbbbbbbbbbbbbbbbbbbbbx= .8bbbbbbbbbbx<.  +6jbbbbbbbbbbbbbbbv3 . @hbbbbbbbbbbbbbbbbbbbbbbbbbbbbbbbbbbbbbbbbb",
"bbbbbbbbbbbbbbbbbbbbbbbbbbbbbbbbbbbbbbbbbbv- .+2svbbbbbbbbx3X...$7gbbbbbbbbbbbcp1O.. *xbbbbbbbbbbbbbbbbbbbbbbbbbbbbbbbbbbbbbbbbb",
"bbbbbbbbbbbbbbbbbbbbbbbbbbbbbbbbbbbbbbbbbbb, .  O;8uhlxxvbbvq@ .. #<wsjxcxzgu7;X    O6bbbbbbbbbbbbbbbbbbbbbbbbbbbbbbbbbbbbbbbbbb",
"bbbbbbbbbbbbbbbbbbbbbbbbbbbbbbbbbbbbbbbbbbb6 ....  X@#%*>hbbbd<X .. .X#%==$+X  .  @3avbbbbbbbbbbbbbbbbbbbbbbbbbbbbbbbbbbbbbbbbbb",
"bbbbbbbbbbbbbbbbbbbbbbbbbbbbbbbbbbbbbbbbbbbuO ... .. . . =dbbbvi,+  . .   . .  X=8gbbbbbbbbbbbbbbbbbbbbbbbbbbbbbbbbbbbbbbbbbbbbb",
"bbbbbbbbbbbbbbbbbbbbbbbbbbbbbbbbbbbbbbbbbbbvr# .....X. . .=fbbbbvg9,$O..  .X@-4ixbbbbbbbbbbbbbbbbbbbbbbbbbbbbbbbbbbbbbbbbbbbbbbb",
"bbbbbbbbbbbbbbbbbbbbbbbbbbbbbbbbbbbbbbbbbbbbba= ....>rwwrudxbbbbbbbvlduewwrphcbbbbbbbbbbbbbbbbbbbbbbbbbbbbbbbbbbbbbbbbbbbbbbbbbb",
"bbbbbbbbbbbbbbbbbbbbbbbbbbbbbbbbbbbbbbbbbbbbbbh,....X6cbbbbbbbbbbbbbbbbbbbbbbbbbbbbbbbbbbbbbbbbbbbbbbbbbbbbbbbbbbbbbbbbbbbbbbbbb",
"bbbbbbbbbbbbbbbbbbbbbbbbbbbbbbbbbbbbbbbbbbbbbbbx5X ...,kbbbbbbbbbbbbbbbbbbbbbbxbbbbbbbbbbbbbbbbbbbbbbbbbbbbbbbbbbbbbbbbbbbbbbbbb",
"bbbbbbbbbbbbbbbbbbbbbbbbbbbbbbbbbbbbbbbbbbbbbbbbvw+ .  -sbbbbbbbbbbbbbbkhjgae8sbbbbbbbbbbbbbbbbbbbbbbbbbbbbbbbbbbbbbbbbbbbbbbbbb",
"bbbbbbbbbbbbbbbbbbbbbbbbbbbbbbbbbbbbbbbbbbbbbbbbbbi% .. #ybbbbbbbbbbbbt$+@+X=ibbbbbbbbbbbbbbbbbbbbbbbbbbbbbbbbbbbbbbbbbbbbbbbbbb",
"bbbbbbbbbbbbbbbbbbbbbbbbbbbbbbbbbbbbbbbbbbbbbbbbbbbg;....O0vbbbbbbbbc8O..  ,jbbbbbbbbbbbbbbbbbbbbbbbbbbbbbbbbbbbbbbbbbbbbbbbbbbb",
"bbbbbbbbbbbbbbbbbbbbbbbbbbbbbbbbbbbbbbbbbbbbbbbbbbbbz2... X4xbbbbbbk1X . X6xbbbbbbbbbbbbbbbbbbbbbbbbbbbbbbbbbbbbbbbbbbbbbbbbbbbb",
"bbbbbbbbbbbbbbbbbbbbbbbbbbbbbbbbbbbbbbbbbbbbbbbbbbbbbv9O.. .,hbbbbd; .. @rvbbbbbbbbbbbbbbbbbbbbbbbbbbbbbbbbbbbbbbbbbbbbbbbbbbbbb",
"bbbbbbbbbbbbbbbbbbbbbbbbbbbbbbbbbbbbbbbbbbbbbbbbbbbbbbby# .. =abby# .. *abbbbbbbbbbbbbbbbbbbbbbbbbbbbbbbbbbbbbbbbbbbbbbbbbbbbbbb",
"bbbbbbbbbbbbbbbbbbbbbbbbbbbbbbbbbbbbbbbbbbbbbbbbbbbbbbbbs; .  #r9O . .,hbbbbbbbbbbbbbbbbbbbbbbbbbbbbbbbbbbbbbbbbbbbbbbbbbbbbbbbb",
"bbbbbbbbbbbbbbbbbbbbbbbbbbbbbbbbbbbbbbbbbbbbbbbbbbbbbbbbbk<... X....X5xbbbbbbbbbbbbbbbbbbbbbbbbbbbbbbbbbbbbbbbbbbbbbbbbbbbbbbbbb",
"bbbbbbbbbbbbbbbbbbbbbbbbbbbbbbbbbbbbbbbbbbbbbbbbbbbbbbbbbbc6X .... @evbbbbbbbbbbbbbbbbbbbbbbbbbbbbbbbbbbbbbbbbbbbbbbbbbbbbbbbbbb",
"bbbbbbbbbbbbbbbbbbbbbbbbbbbbbbbbbbbbbbbbbbbbbbbbbbbbbbbbbbbvr@ .  *ibbbbbbbbbbbbbbbbbbbbbbbbbbbbbbbbbbbbbbbbbbbbbbbbbbbbbbbbbbbb",
"bbbbbbbbbbbbbbbbbbbbbbbbbbbbbbbbbbbbbbbbbbbbbbbbbbbbbbbbbbbbba& .>hbbbbbbbbbbbbbbbbbbbbbbbbbbbbbbbbbbbbbbbbbbbbbbbbbbbbbbbbbbbbb",
"bbbbbbbbbbbbbbbbbbbbbbbbbbbbbbbbbbbbbbbbbbbbbbbbbbbbbbbbbbbbbbh,4xbbbbbbbbbbbbbbbbbbbbbbbbbbbbbbbbbbbbbbbbbbbbbbbbbbbbbbbbbbbbbb",
"bbbbbbbbbbbbbbbbbbbbbbbbbbbbbbbbbbbbbbbbbbbbbbbbbbbbbbbbbbbbbbbvvbbbbbbbbbbbbbbbbbbbbbbbbbbbbbbbbbbbbbbbbbbbbbbbbbbbbbbbbbbbbbbb",
"bbbbbbbbbbbbbbbbbbbbbbbbbbbbbbbbbbbbbbbbbbbbbbbbbbbbbbbbbbbbbbbbbbbbbbbbbbbbbbbbbbbbbbbbbbbbbbbbbbbbbbbbbbbbbbbbbbbbbbbbbbbbbbbb",
"bbbbbbbbbbbbbbbbbbbbbbbbbbbbbbbbbbbbbbbbbbbbbbbbbbbbbbbbbbbbbbbbbbbbbbbbbbbbbbbbbbbbbbbbbbbbbbbbbbbbbbbbbbbbbbbbbbbbbbbbbbbbbbbb",
"bbbbbbbbbbbbbbbbbbbbbbbbbbbbbbbbbbbbbbbbbbbbbbbbbbbbbbbbbbbbbbbbbbbbbbbbbbbbbbbbbbbbbbbbbbbbbbbbbbbbbbbbbbbbbbbbbbbbbbbbbbbbbbbb",
"bbbbbbbbbbbbbbbbbbbbbbbbbbbbbbbbbbbbbbbbbbbbbbbbbbbbbbbbbbbbbbbbbbbbbbbbbbbbbbbbbbbbbbbbbbbbbbbbbbbbbbbbbbbbbbbbbbbbbbbbbbbbbbbb",
"bbbbbbbbbbbbbbbbbbbbbbbbbbbbbbbbbbbbbbbbbbbbbbbbbbbbbbbbbbbbbbbbbbbbbbbbbbbbbbbbbbbbbbbbbbbbbbbbbbbbbbbbbbbbbbbbbbbbbbbbbbbbbbbb",
"bbbbbbbbbbbbbbbbbbbbbbbbbbbbbbbbbbbbbbbbbbbbbbbbbbbbbbbbbbbbbbbbbbbbbbbbbbbbbbbbbbbbbbbbbbbbbbbbbbbbbbbbbbbbbbbbbbbbbbbbbbbbbbbb",
"bbbbbbbbbbbbbbbbbbbbbbbbbbbbbbbbbbbbbbbbbbbbbbbbbbbbbbbbbbbbbbbbbbbbbbbbbbbbbbbbbbbbbbbbbbbbbbbbbbbbbbbbbbbbbbbbbbbbbbbbbbbbbbbb",
"bbbbbbbbbbbbbbbbbbbbbbbbbbbbbbbbbbbbbbbbbbbbbbbbbbbbbbbbbbbbbbbbbbbbbbbbbbbbbbbbbbbbbbbbbbbbbbbbbbbbbbbbbbbbbbbbbbbbbbbbbbbbbbbb",
"bbbbbbbbbbbbbbbbbbbbbbbbbbbbbbbbbbbbbbbbbbbbbbbbbbbbbbbbbbbbbbbbbbbbbbbbbbbbbbbbbbbbbbbbbbbbbbbbbbbbbbbbbbbbbbbbbbbbbbbbbbbbbbbb",
"bbbbbbbbbbbbbbbbbbbbbbbbbbbbcvbbbbbbbbbbvcxcxxxbbbbbbbvxxxxcxvbbbbbbbcxcxxxbbbbbbcvbbbbbbxvbbbbbbcxxxxxcbbbbbbbbbbbbbbbbbbbbbbbb",
"bbbbbbbbbbbbbbbbbbbbbbbbbbb9*<zbbbbbbbby>*&&%%>xbbbbvw;&*%*&%ebbbbbh3=*%&**ubbbbf=ebbbbbi=ubbbbbw=&%**%;gbbbbbbbbbbbbbbbbbbbbbbb",
"bbbbbbbbbbbbbbbbbbbbbbbbbbd+O.7bbbbbbbf@X=--;=,xbbbbr.o&=***&wbbbbv, $-=-=-ubbbbi.7bbbbbt wbbbbj@O=;-==:hbbbbbbbbbbbbbbbbbbbbbbb",
"bbbbbbbbbbbbbbbbbbbbbbbbbb2Xe-#jbbbbbbe.9vvvvvvbbbbb2Xyxcvvccbbbbbk#;xvvvvvbbbbbiX7bbbbbt.ebbbbfX2vvvvvvbbbbbbbbbbbbbbbbbbbbbbbb",
"bbbbbbbbbbbbbbbbbbbbbbbbbdO:vrX6bbbbbb0.3eereeuvbbbb<+jbuwweegbbbbh+=eeeeeekbbbba.8bbbbbt.ebbbbgO=weeergbbbbbbbbbbbbbbbbbbbbbbbb",
"bbbbbbbbbbbbbbbbbbbbbbbbb1Xubc;#hbbbbb9 X++O+O-xbbbv,+jv>+++ 7bbbbh@XO+O+++ubbbba.8bbbbbt.wbbbbc3++O+OX#dbbbbbbbbbbbbbbbbbbbbbbb",
"bbbbbbbbbbbbbbbbbbbbbbbbs++799; 6bbbbbq.qggggghbbbbb,+jbkhhuo7bbbbh+>ggggggcbbbbiX7bbbbbt.ebbbbbvjgggg7.ebbbbbbbbbbbbbbbbbbbbbbb",
"bbbbbbbbbbbbbbbbbbbbbbbv1.#$$#$o#gbbbbr.6kklllzbbbbb3.wjkkluX7bbbbl#&glllllvbbbbfX;gjjkh2.ybbbbbllllllw qbbbbbbbbbbbbbbbbbbbbbbb",
"bbbbbbbbbbbbbbbbbbbbbbbaX:kzxlxe.4bbbbj$ @@@@@=zbbbbuXX@@@@X wbbbbv3 O@@@@@tbbbbc: O@+++.%jbbbbg$@@@@@XXubbbbbbbbbbbbbbbbbbbbbbb",
"bbbbbbbbbbbbbbbbbbbbbbbt,abbbbbc54xbbbbd4<,,,,3xbbbbbu3,,,,,4kbbbbbx91,,,,,abbbbbj7<,,,<6fbbbbbj2,,<,<,wvbbbbbbbbbbbbbbbbbbbbbbb",
"bbbbbbbbbbbbbbbbbbbbbbbbbbbbbbbbbbbbbbbbbbbbbbbbbbbbbbbbbbbbbbbbbbbbbbbbbbbbbbbbbbbbbbbbbbbbbbbbbbvbbbbbbbbbbbbbbbbbbbbbbbbbbbbb",
"bbbbbbbbbbbbbbbbbbbbbbbbbbbbbbbbbbbbbbbbbbbbbbbbbbbbbbbbbbbbbbbbbbbbbbbbbbbbbbbbbbbbbbbbbbbbbbbbbbbbbbbbbbbbbbbbbbbbbbbbbbbbbbbb",
"bbbbbbbbbbbbbbbbbbbbbbbbbbbbbbbbbbbbbbbbbbbbbbbbbbbbbbbbbbbbbbbbbbbbbbbbbbbbbbbbbbbbbbbbbbbbbbbbbbbbbbbbbbbbbbbbbbbbbbbbbbbbbbbb"
};
