/* XPM */
static char *bitcoin16[] = {
/* columns rows colors chars-per-pixel */
"16 10 60 1 ",
"  c #6BA2D3",
". c #6FA5D4",
"X c #79ABD7",
"o c #83B1DA",
"O c #8CB7DD",
"+ c #93BBDF",
"@ c #94BCDF",
"# c #96BDE0",
"$ c #9AC0E1",
"% c #9DC1E2",
"& c #9EC2E2",
"* c #A2C5E3",
"= c #A3C5E3",
"- c #A6C7E4",
"; c #A8C8E5",
": c #A9C9E5",
"> c #AACAE6",
", c #ABCBE6",
"< c #ACCBE6",
"1 c #B2CEE8",
"2 c #B3CFE8",
"3 c #B5D0E9",
"4 c #B6D1E9",
"5 c #B7D2EA",
"6 c #BBD4EB",
"7 c #BCD5EB",
"8 c #BFD7EC",
"9 c #C0D7EC",
"0 c #C0D8EC",
"q c #C4DAED",
"w c #C5DBEE",
"e c #C8DDEF",
"r c #CBDFF0",
"t c #CDE0F0",
"y c #CEE0F0",
"u c #D0E2F1",
"i c #D1E2F1",
"p c #D5E5F2",
"a c #D5E5F3",
"s c #D9E7F4",
"d c #DAE8F4",
"f c #DBE9F4",
"g c #DCE9F4",
"h c #DDEAF5",
"j c #DEEBF5",
"k c #E0EBF6",
"l c #E1ECF6",
"z c #E2EDF6",
"x c #E5EEF7",
"c c #E5EFF7",
"v c #E7F0F8",
"b c #EAF2F9",
"n c #EFF5FA",
"m c #F3F7FB",
"M c #F4F8FC",
"N c #F5F9FC",
"B c #F7FAFC",
"V c #FBFDFE",
"C c #FEFEFF",
"Z c white",
/* pixels */
"ZZZZZgo &+hZZZZZ",
"ZZZZj+3=;,@lZZZZ",
"ZZZZy-41q4:uZZZZ",
"ZZZZn&7lf*XvZZZZ",
"ZZZZC*<%86OBZZZZ",
"ZZZZZy.02>bZZZZZ",
"ZZZZZZk#$cZZZZZZ",
"ZZZZZZZmMZZZZZZZ",
"ZZVpzrsiudxzeNZZ",
"ZZM9u7t80uwa5nZZ"
};
