/* XPM */
static char *bitcoin64[] = {
/* columns rows colors chars-per-pixel */
"64 40 134 2 ",
"   c #0D021C",
".  c #0C0622",
"X  c #0B0826",
"o  c #050F29",
"O  c #0A0B2B",
"+  c #05112C",
"@  c #0A0F31",
"#  c #061333",
"$  c #091135",
"%  c #07163A",
"&  c #09143B",
"*  c #05193C",
"=  c #08183F",
"-  c #0A1741",
";  c #051C43",
":  c #091944",
">  c #071F4D",
",  c #0A1C4B",
"<  c #0A1F51",
"1  c #06214D",
"2  c #072354",
"3  c #092155",
"4  c #0A2A53",
"5  c #07265C",
"6  c #0A245B",
"7  c #06285D",
"8  c #0A295E",
"9  c #0B385F",
"0  c #0B2662",
"q  c #072A63",
"w  c #092964",
"e  c #0D2769",
"r  c #072E6C",
"t  c #0A2B6C",
"y  c #07306F",
"u  c #0B336D",
"i  c #0C2D73",
"p  c #0F2E7B",
"a  c #063373",
"s  c #093274",
"d  c #0B3977",
"f  c #07357A",
"g  c #0A347B",
"h  c #0E3D7E",
"j  c #10317F",
"k  c #0D4B76",
"l  c #0E4C7D",
"z  c #0C3481",
"x  c #073982",
"c  c #093A84",
"v  c #0A3C8A",
"b  c #103183",
"n  c #11348A",
"m  c #10398B",
"M  c #0A3F90",
"N  c #123792",
"B  c #123995",
"V  c #123B9B",
"C  c #143DA2",
"Z  c #0C4385",
"A  c #0F4981",
"S  c #0A448C",
"D  c #0E4B8C",
"F  c #104085",
"G  c #104B8B",
"H  c #0F5D88",
"J  c #105B8A",
"K  c #0A4293",
"L  c #0B459A",
"P  c #0B4C9D",
"I  c #114D93",
"U  c #0E5392",
"Y  c #0D549D",
"T  c #10618E",
"R  c #116295",
"E  c #12629D",
"W  c #0B4CA4",
"Q  c #0C4FAA",
"!  c #1540AB",
"~  c #0C55AD",
"^  c #0E59AC",
"/  c #125EA0",
"(  c #1542B0",
")  c #0D55B2",
"_  c #0D5CB5",
"`  c #0E5CBC",
"'  c #0E6BA4",
"]  c #1263A2",
"[  c #1168A6",
"{  c #1065A9",
"}  c #146BAD",
"|  c #0F75A5",
" . c #0F60BE",
".. c #0E6CBB",
"X. c #1065B2",
"o. c #1279BD",
"O. c #0F64C3",
"+. c #0F66CB",
"@. c #106AC2",
"#. c #1069CA",
"$. c #1378CD",
"%. c #0F6DD2",
"&. c #0F73D5",
"*. c #1072D4",
"=. c #127BD5",
"-. c #117BDD",
";. c #107FE1",
":. c #1380BB",
">. c #1389C3",
",. c #1587D7",
"<. c #1388D0",
"1. c #1585DD",
"2. c #1692DE",
"3. c #149DD8",
"4. c #1AA2DD",
"5. c #138EE3",
"6. c #1387E9",
"7. c #148BEC",
"8. c #1491ED",
"9. c #169DEF",
"0. c #15A3EA",
"q. c #19A5EE",
"w. c #15ACEF",
"e. c #1ABFE1",
"r. c #17A2F3",
"t. c #19A2F5",
"y. c #17A0F8",
"u. c #18A3FB",
"i. c #1EBEF2",
"p. c #19B2FB",
"a. c #1ACBF3",
"s. c #1BC1FC",
"d. c #1EDFFC",
"f. c #20D8FF",
/* pixels */
"                .   . . o X X X O O O @ @ @ $ & - - - - : , , : : : - & & & % $ $ $ $ $ O O O O O O . . . .                     ",
"                . . . . . X X O O @ @ @ & & - - : , , < , > < , , : : : : & & & & & $ $ @ # O O O O . O X . . .   .             ",
"            .   . . o X X X O @ @ @ $ $ & - : , , < < 6 6 6 3 2 < , , : ; - - - & & & & $ $ $ @ @ O O O X X . . .               ",
"          .   . . . X X O O O @ @ $ $ & - : , < < 6 0 0 0 8 6 3 < 3 < > 1 1 , , : : : - & & $ $ @ @ O O X X . . .   .           ",
"              . X X X X O O @ @ @ & & : , , 3 6 e e t t w w w 6 5 3 6 3 3 2 1 3 , , , : : - & & $ $ @ O X X X X .               ",
"            . . X X X O O @ @ $ & - : , < 6 0 w i i s i s a t s u y q 6 6 6 6 3 3 < < , , : : - & $ @ O O O X X .               ",
"                X X X @ @ @ $ & & : , , 6 6 t i p g g K W )  .+.#.#.O.^ S a 8 8 6 6 6 3 < < , - - $ @ @ O O O X . .             ",
"              o X X O X @ @ & & : , < 6 e t p g b L ) O.+.#.%.*.&.6.6.7.7.=./ f e e 0 0 6 < , : - $ $ @ O O X X . .             ",
"        . . . X X @ O @ $ & & : , < 6 e t i g v W ` O._ W F d i d Z Y ..5.t.t.,.I t r t 0 6 > , = & $ $ @ O O X X X . . .       ",
"      . . . X X X O O @ $ & - , < 6 0 t s z v W ) ~ c 4 , , < 6 6 e e r h } 0.p.q.{ s t w 6 3 , : = & $ @ @ @ O X . . .         ",
"      . . . X X O O @ @ & & , , < 0 t i g v L Q K 4 & ; 3 3 0 0 e i i i i i G 3.s.o.z a w 6 3 < , : & & @ $ O O O X . . .       ",
"      . . . X O O @ @ & & & , < 6 w i g x M L c - $ : , 3 3 6 0 e e i p j j p c ' K z s r 0 6 3 , , = $ $ @ @ O X X X .   .     ",
"    . . . . X X O @ @ $ & : , 3 6 t i g v K c % % = ; > < < 6 6 0 e i p p b b 3 % a c f a t 5 6 < , & & $ @ @ O X X X . .       ",
"    . . . X O O O @ $ & - , < 6 0 t a f c c ; + % = : , , < < 6 8 e e i p b 0 % + ; x x a r w 6 < , : & $ $ @ O O X X . . .     ",
"      . X X X O O @ $ & - , < 6 w t s x c q + % % = - ; , < e e i i i e i 6 - & % + 7 c s i r 0 < < : & $ # @ O O X X . . .     ",
"    . . . X X O O @ $ & - , < 0 w r i f f # # # % = = : < e e i p b b b 6 - & & % + % x z f r 0 4 < : & $ $ @ O O O . . . . .   ",
"  . . . . O O O X @ & = : , < 8 8 t a f w + + % % % = < 6 0 e i i j b p < - = = * # + y c g r w 6 , - & & @ @ @ X X X . . .     ",
"    . . . X . O @ @ $ & , , < 3 0 t r f 1 + + % # % : < < 0 e e i p p e 0 > = = * # + 5 v g r w 3 < , & & @ @ O O O X X . . .   ",
"    . . X X O O @ @ & = = , , 3 8 q u f ; + # # # % : 4 0 u u d p F F d s w - = * % + > M x i q 4 , , & & @ @ O O O X X . .   . ",
"  . . . . X X @ @ @ $ & = : , 4 3 q r a % + + # # # 4 k l T T A E E E G R l , : = % # > M x r 5 3 , , & - $ & @ O O X . . .     ",
"  . . . X X O O O @ @ $ = = 1 , 2 7 y a % + + # # % 9 k l H J Y } ] E G J l , : - = # 1 K x t 5 6 < , - - & @ @ @ O O . . .     ",
"    . . X X O O o @ $ & & & : 1 2 8 r a ; + + # # # ; 3 4 8 b V B m b j p 6 : : - = + 2 K f t q 4 < , : - & & @ O O . . . .   . ",
"  . . . . X X O @ @ $ $ & = ; 4 2 8 q f 1 o # # @ + % , 3 b C C B n b j i 6 ; > ; = # q K g r w 6 3 < , - & @ @ O . . O .   .   ",
"    . . X X O O @ @ @ & = = : , 2 7 y f q + + # # # # : j ( C C V m b j t 3 , , , = # f K g t 0 0 < < : & & @ @ O O O . . . .   ",
"    . . . O X O O @ $ $ & = : , 2 6 u f f % + # # # # 0 C ( ! C V N b i 0 < < < , = ; K K f r t e 6 < , - & $ O O O O . .       ",
"  .   . . X O O O @ $ $ & = = , > 6 t a f 5 o + + % e N N B V V N b i 0 6 6 < < ; % f W M s t t 0 < , - & & @ @ @ . . . . . .   ",
"  . . . . O O O O O @ $ $ & = : > 6 q t a f * o # t V V N n b b p i e e 0 0 6 , = 3 W W v g i t 6 < , - & @ @ O O O X . . .     ",
"      . . . . . O @ @ $ $ & = : > 2 5 q a f a # 0 C ! C V N n b j i i e 0 0 3 : 1 P ) L g g i 0 < < , - - @ @ O X . X . .   .   ",
"      . . . O O O @ @ @ $ & = : , < 5 q r g S | I N C C V B m n b j i i e 6 , < P  .Q v j p e e < < - - & $ @ @ O X . .         ",
"      . . . . O X O O @ $ $ & - : < 6 0 t a :.d.e./ n N V B N n b j i e 0 < u _ +.` M z p e e < < , - & $ @ @ X X X . . .       ",
"      . . . . . O O O @ $ $ $ & : > 3 6 w r [ i.f.a.>.P b b j j i i e 6 u Y #.*. .I j j e e e , , - & @ @ @ O O X X . . .       ",
"        . . . . X O O @ $ $ $ & - , < 6 0 q t U 4.s.i.w.<.X.Y G G G / ..=.;.*._ m h p e e < < < - - - @ @ O O O X . . .         ",
"        . . . . . O O O O # $ % - : < < < 5 q q d { 2.y.u.u.t.r.9.9.8.6.-.@.P z p p t 0 6 < , : - & $ @ @ O X X X . .           ",
"          . . X . O O O @ @ @ $ & : : > > < < 6 5 5 u D X.$.,.1.1.=.@.^ K g s s i e 0 6 < , : - & $ @ @ O X X X X . . .         ",
"          .   . . O O O O O # $ & & - : , : > < 2 2 3 2 6 q w s i u r t r i i t e 6 6 < , : - & $ @ @ O O O X X . . .           ",
"            . . . O . O O @ O @ @ $ $ & * : : , , > 1 2 2 2 3 4 8 0 w w t t w 6 0 3 , , : - & $ $ @ O O O X . X .               ",
"              . . . . O X O O @ @ $ $ $ = = - - ; : > , , 4 1 4 < 6 0 0 6 6 6 < < , - - - & $ @ @ O O O X X . .                 ",
"              . . . X . O X O O @ @ $ $ $ = & = = - ; : , , : , < < < 3 3 < < > , - - - $ $ @ @ @ O O X X . X .                 ",
"            .   . . . . X O O O O @ @ $ $ $ $ = = - = - = : : : < < < , , : : : - - & & $ @ @ O O O X X X . .                   ",
"                . . . . . X X O O O O @ @ $ $ $ $ $ $ = & & = & : : : : : - - & - & $ @ @ @ @ O X X X . . . .                   "
};
