/* XPM */
static char *bitcoin64[] = {
/* columns rows colors chars-per-pixel */
"64 40 51 1 ",
"  c #166DB9",
". c #196FBA",
"X c #1D71BB",
"o c #2375BD",
"O c #2778BF",
"+ c #2979BF",
"@ c #2D7BC0",
"# c #327EC2",
"$ c #3681C3",
"% c #3B84C5",
"& c #4288C7",
"* c #478BC8",
"= c #4A8DC9",
"- c #4F91CB",
"; c #5393CC",
": c #5997CE",
"> c #5D9ACF",
", c #649DD1",
"< c #67A0D2",
"1 c #6CA3D3",
"2 c #71A6D5",
"3 c #76A9D6",
"4 c #79ABD7",
"5 c #7DAED8",
"6 c #84B2DA",
"7 c #8BB6DC",
"8 c #8EB8DD",
"9 c #93BBDF",
"0 c #96BDE0",
"q c #99BFE1",
"w c #9CC1E2",
"e c #A3C5E4",
"r c #ABCAE6",
"t c #B0CEE7",
"y c #B1CEE8",
"u c #B6D1E9",
"i c #BBD4EB",
"p c #C4DAED",
"a c #CADEEF",
"s c #CCDFF0",
"d c #CEE0F0",
"f c #D3E3F2",
"g c #D9E7F4",
"h c #DDE9F5",
"j c #E3EEF7",
"k c #E6EFF8",
"l c #E7F0F8",
"z c #ECF3F9",
"x c #F2F7FB",
"c c #F5F9FC",
"v c #FFFFFF",
/* pixels */
"vvvvvvvvvvvvvvvvvvvvvvvvvcfssadzvvzddgvvvvvvvvvvvvvvvvvvvvvvvvvv",
"vvvvvvvvvvvvvvvvvvvvvvvvx7@++@@;rxg,@#0cvvvvvvvvvvvvvvvvvvvvvvvv",
"vvvvvvvvvvvvvvvvvvvvvvvk<Xo$%o. X,gj2XX4zvvvvvvvvvvvvvvvvvvvvvvv",
"vvvvvvvvvvvvvvvvvvvvvvf;.@wku#o65o*gc0+.,hvvvvvvvvvvvvvvvvvvvvvv",
"vvvvvvvvvvvvvvvvvvvvvi%.%ivk=+rvceo;zvt$.*pvvvvvvvvvvvvvvvvvvvvv",
"vvvvvvvvvvvvvvvvvvvcw+.;fvv5Xwvvvv9X7vva=.$rvvvvvvvvvvvvvvvvvvvv",
"vvvvvvvvvvvvvvvvvvc6oX<kvvf#,cvvvvx;#gvvg>.O9cvvvvvvvvvvvvvvvvvv",
"vvvvvvvvvvvvvvvvvvh@.6xvvvprzchw<fvrXqvvvz2X%zvvvvvvvvvvvvvvvvvv",
"vvvvvvvvvvvvvvvvvvx*opvvvvvg8;#X 4vj#,vvvvyX:cvvvvvvvvvvvvvvvvvv",
"vvvvvvvvvvvvvvvvvvv,.evvvz7#o=3,=uvc-=xvvv9.4vvvvvvvvvvvvvvvvvvv",
"vvvvvvvvvvvvvvvvvvv8.6vvh:o,pzvvxvvv>&zvvv1.wvvvvvvvvvvvvvvvvvvv",
"vvvvvvvvvvvvvvvvvvvr.:vh;owcvvvvvvvc>*xacc;Xivvvvvvvvvvvvvvvvvvv",
"vvvvvvvvvvvvvvvvvvvdo3c1oevvvvvvvvvx=>z;ej%@gvvvvvvvvvvvvvvvvvvv",
"vvvvvvvvvvvvvvvvvvvk;fio3cvvvvvvvvvp@6c<%ro=xvvvvvvvvvvvvvvvvvvv",
"vvvvvvvvvvvvvvvvvvvxwx,#gvvt7kvvvvg$Xrvf#%X,vvvvvvvvvvvvvvvvvvvv",
"vvvvvvvvvvvvvvvvvvvvzg#1vvh# 9vvvva@ouvv1..6vvvvvvvvvvvvvvvvvvvv",
"vvvvvvvvvvvvvvvvvvvvvuoevvz,X>zvvvviucvveXXrvvvvvvvvvvvvvvvvvvvv",
"vvvvvvvvvvvvvvvvvvvvvwXpvvvz7X<jvvvvvvvvuXoavvvvvvvvvvvvvvvvvvvv",
"vvvvvvvvvvvvvvvvvvvvvwX6jcvvc5X&elvvvvvg5.$jvvvvvvvvvvvvvvvvvvvv",
"vvvvvvvvvvvvvvvvvvvvvtXX%,79pce%X%18q7,#X&ecvvvvvvvvvvvvvvvvvvvv",
"vvvvvvvvvvvvvvvvvvvvvj;X..oo%ivh0;#ooo$,rzvvvvvvvvvvvvvvvvvvvvvv",
"vvvvvvvvvvvvvvvvvvvvvvk1XX>iskvvvchapflvvvvvvvvvvvvvvvvvvvvvvvvv",
"vvvvvvvvvvvvvvvvvvvvvvvc7oX3zvvvvvvcjgsxvvvvvvvvvvvvvvvvvvvvvvvv",
"vvvvvvvvvvvvvvvvvvvvvvvvvr$.;gvvvvf:#=ucvvvvvvvvvvvvvvvvvvvvvvvv",
"vvvvvvvvvvvvvvvvvvvvvvvvvva=.%ivvu%.=svvvvvvvvvvvvvvvvvvvvvvvvvv",
"vvvvvvvvvvvvvvvvvvvvvvvvvvvh,.#e0+X1kvvvvvvvvvvvvvvvvvvvvvvvvvvv",
"vvvvvvvvvvvvvvvvvvvvvvvvvvvvx6oXXO9xvvvvvvvvvvvvvvvvvvvvvvvvvvvv",
"vvvvvvvvvvvvvvvvvvvvvvvvvvvvvce@$rvvvvvvvvvvvvvvvvvvvvvvvvvvvvvv",
"vvvvvvvvvvvvvvvvvvvvvvvvvvvvvvvpdvvvvvvvvvvvvvvvvvvvvvvvvvvvvvvv",
"vvvvvvvvvvvvvvvvvvvvvvvvvvvvvvvvvvvvvvvvvvvvvvvvvvvvvvvvvvvvvvvv",
"vvvvvvvvvvvvvvvvvvvvvvvvvvvvvvvvvvvvvvvvvvvvvvvvvvvvvvvvvvvvvvvv",
"vvvvvvvvvvvvvvvvvvvvvvvvvvvvvvvvvvvvvvvvvvvvvvvvvvvvvvvvvvvvvvvv",
"vvvvvvvvvvvvvvvvvvvvvvvvvvvvvvvvvvvvvvvvvvvvvvvvvvvvvvvvvvvvvvvv",
"vvvvvvvvvvvvvvzvvvvvzllcvvvzkkzvvvxllzvvxcvvxvvvxzklvvvvvvvvvvvv",
"vvvvvvvvvvvvve;fvvvr><<uvvq:,,9vvp,<,wvv9pvv7dvz1,<3zvvvvvvvvvvv",
"vvvvvvvvvvvvk,75vvv<6yrgvx,iuravv71yrsvv4uvv2ivg;erpcvvvvvvvvvvv",
"vvvvvvvvvvvv9>y=avv,287avx,ge51cv6,88uvv4uvv2pvce77:fvvvvvvvvvvv",
"vvvvvvvvvvvj:7q33cv6188avc22731vve>87uvv9>76;gvzq97;avvvvvvvvvvv",
"vvvvvvvvvvvkavvcpxvzyregvvjrrrfvvxurrpvvzurravvxyrrucvvvvvvvvvvv",
"vvvvvvvvvvvvvvvvvvvvvvvvvvvvvvvvvvvvvvvvvvvvvvvvvvvvvvvvvvvvvvvv"
};
