/* XPM */
static char *bitcoin32[] = {
/* columns rows colors chars-per-pixel */
"32 20 72 1 ",
"  c #0D021D",
". c #0C0522",
"X c #0B0826",
"o c #0B0B2B",
"O c #06122F",
"+ c #0A0F31",
"@ c #061333",
"# c #091135",
"$ c #07163A",
"% c #09143B",
"& c #05183A",
"* c #08183F",
"= c #071740",
"- c #0A1741",
"; c #061D45",
": c #091944",
"> c #061E4A",
", c #0A1C4B",
"< c #0A1F51",
"1 c #06214E",
"2 c #072353",
"3 c #092155",
"4 c #07265A",
"5 c #0A245C",
"6 c #06295F",
"7 c #092C5B",
"8 c #0B2663",
"9 c #072B64",
"0 c #092965",
"q c #072F6B",
"w c #0B2B6B",
"e c #09316E",
"r c #0C2D72",
"t c #0F2E7B",
"y c #073274",
"u c #0A3273",
"i c #0D3B77",
"p c #0A347B",
"a c #0C3B7D",
"s c #0D4273",
"d c #0D457E",
"f c #0A3680",
"g c #0A3A85",
"h c #0B3E8F",
"j c #103387",
"k c #11358D",
"l c #123793",
"z c #113893",
"x c #133C9D",
"c c #133BA1",
"v c #10468B",
"b c #104B8C",
"n c #0B4392",
"m c #0E4B92",
"M c #104895",
"N c #12509B",
"B c #115D9F",
"V c #0C4CA2",
"C c #125BAA",
"Z c #0D58B4",
"A c #126DA7",
"S c #1064A8",
"D c #0E61BD",
"F c #1372B3",
"G c #117CB2",
"H c #0F65C0",
"J c #0F69C5",
"K c #106EC6",
"L c #1172C4",
"P c #158DD1",
"I c #1694E0",
"U c #1AB4E8",
/* pixels */
"    ..Xoo++--,,,::*%##+ooo..    ",
"   ..Xoo+%-,<555<,::**##ooX..   ",
"    Xoo#%:,8wwuqe833<,:*#+oX    ",
"   .Xo+#:<8rkVZDJLSg85<,%+oXX   ",
"  .Xoo#:38uhVMiramLISw5<*#+oX.  ",
" ..Xo#*,5egn8:<58rtBFp03:%#oX.. ",
" .XX+#-<8pg2%;<58rt51py5,-#oXX  ",
" .XX+%-59p9@%:3wtt5-@9p03-%ooX. ",
" .Xo+#,30u1O@;5wtr<:$>f93:#+oX. ",
" .Xo+$:18e&O&7sdbvs:$;gw,:%+oX. ",
" .Xo+#%14q&O@7sMNvi,*;f93:%+oX..",
" ..o+#%14e;O#*tclf8>=2gw5,%#oX. ",
"..XXo#%:3u6O@8xxlr5<-pgw5,%+oX  ",
"  XXo#%:29y>8xzjtw8,wVaw3:#+o.. ",
" ..Xo+#*,6uGFxlktw5iZnt8<-#oX.. ",
"  .Xo+##:3wAUPCMvMCHMt8<-#+oX.  ",
"   Xoo+#-,24dFLPLKCgr0<-%+oXX.  ",
"  ...oo+#*:,,3qearww5<,%+oXX..  ",
"    .Xoo+#%*;,,,<55<,-##+oX.    ",
"    .XXoo###%***,,,--#+ooX..    "
};
