/* XPM */
static char *bitcoin32[] = {
/* columns rows colors chars-per-pixel */
"32 20 156 2 ",
"   c #1F73BC",
".  c #3F87C6",
"X  c #4288C7",
"o  c #4389C7",
"O  c #448AC7",
"+  c #468BC8",
"@  c #498DC9",
"#  c #4B8EC9",
"$  c #4C8FCA",
"%  c #4D8FCA",
"&  c #5192CB",
"*  c #5293CB",
"=  c #5494CC",
"-  c #5594CC",
";  c #5595CC",
":  c #5695CD",
">  c #5897CD",
",  c #5997CE",
"<  c #5A97CE",
"1  c #5C99CE",
"2  c #619CD0",
"3  c #639DD0",
"4  c #649ED1",
"5  c #659FD1",
"6  c #669FD1",
"7  c #68A0D2",
"8  c #69A1D2",
"9  c #6DA3D3",
"0  c #6DA4D4",
"q  c #6EA4D4",
"w  c #6FA5D4",
"e  c #71A6D5",
"r  c #74A8D5",
"t  c #76A9D6",
"y  c #77A9D6",
"u  c #77AAD7",
"i  c #7AACD7",
"p  c #7BACD8",
"a  c #7DADD8",
"s  c #7EAED8",
"d  c #7FAFD9",
"f  c #80AFD9",
"g  c #81B0D9",
"h  c #83B1DA",
"j  c #84B2DA",
"k  c #85B3DB",
"l  c #86B3DB",
"z  c #88B4DB",
"x  c #88B5DC",
"c  c #89B5DC",
"v  c #8BB6DC",
"b  c #8CB7DD",
"n  c #8DB7DD",
"m  c #8FB9DE",
"M  c #90B9DE",
"N  c #93BBDF",
"B  c #94BCDF",
"V  c #96BDE0",
"C  c #97BEE0",
"Z  c #98BEE0",
"A  c #98BFE0",
"S  c #9ABFE1",
"D  c #9AC0E1",
"F  c #9BC0E1",
"G  c #9CC1E1",
"H  c #9CC1E2",
"J  c #9FC3E2",
"K  c #A3C5E4",
"L  c #A5C6E4",
"P  c #A6C7E4",
"I  c #A7C8E5",
"U  c #AACAE6",
"Y  c #ABCAE6",
"T  c #ABCBE6",
"R  c #ACCBE6",
"E  c #ADCCE7",
"W  c #AECCE7",
"Q  c #AFCDE7",
"!  c #B1CEE8",
"~  c #B3CFE8",
"^  c #B3D0E8",
"/  c #B4D0E9",
"(  c #B7D2EA",
")  c #B8D3EA",
"_  c #B9D3EA",
"`  c #BAD4EB",
"'  c #BBD4EB",
"]  c #BCD5EB",
"[  c #BDD6EB",
"{  c #BED6EC",
"}  c #BFD7EC",
"|  c #C0D7EC",
" . c #C1D8EC",
".. c #C2D9ED",
"X. c #C3D9ED",
"o. c #C6DBEE",
"O. c #C7DCEE",
"+. c #C8DCEF",
"@. c #C8DDEF",
"#. c #C9DDEF",
"$. c #CADEEF",
"%. c #CBDFF0",
"&. c #CCDFF0",
"*. c #CDDFF0",
"=. c #CEE0F0",
"-. c #D0E1F1",
";. c #D0E2F1",
":. c #D1E2F1",
">. c #D2E3F1",
",. c #D3E3F2",
"<. c #D6E5F3",
"1. c #D7E6F3",
"2. c #D8E7F3",
"3. c #DAE8F4",
"4. c #DBE8F4",
"5. c #DDE9F5",
"6. c #DEEAF5",
"7. c #E0ECF6",
"8. c #E1ECF6",
"9. c #E2EDF6",
"0. c #E3EEF7",
"q. c #E4EEF7",
"w. c #E6EFF7",
"e. c #E7F0F8",
"r. c #E8F0F8",
"t. c #E8F1F8",
"y. c #E9F1F8",
"u. c #EAF2F9",
"i. c #EBF2F9",
"p. c #EBF3F9",
"a. c #ECF3F9",
"s. c #EEF4FA",
"d. c #EEF5FA",
"f. c #EFF5FA",
"g. c #F0F5FA",
"h. c #F0F6FA",
"j. c #F0F6FB",
"k. c #F1F6FB",
"l. c #F2F7FB",
"z. c #F3F7FB",
"x. c #F4F8FC",
"c. c #F5F9FC",
"v. c #F6F9FC",
"b. c #F6FAFC",
"n. c #F7FAFC",
"m. c #F7FAFD",
"M. c #F9FBFD",
"N. c #FAFCFD",
"B. c #FAFCFE",
"V. c #FBFCFE",
"C. c #FCFDFE",
"Z. c #FDFDFE",
"A. c #FDFEFE",
"S. c #FEFEFF",
"D. c #FEFFFF",
"F. c white",
/* pixels */
"F.F.F.F.F.F.F.F.F.F.F.F.$.e 9 f ,...i -.F.F.F.F.F.F.F.F.F.F.F.F.",
"F.F.F.F.F.F.F.F.F.F.S.( @ r $ . 2 L l # { F.F.F.F.F.F.F.F.F.F.F.",
"F.F.F.F.F.F.F.F.F.m.F o Y O.6 5.2.3 &.P O K M.F.F.F.F.F.F.F.F.F.",
"F.F.F.F.F.F.F.F.F.K O X.F.E _ =.%.W s A.[ X E F.F.F.F.F.F.F.F.F.",
"F.F.F.F.F.F.F.F.F.H 9 F.l.J w 1 a 8.7 f.F.5 I F.F.F.F.F.F.F.F.F.",
"F.F.F.F.F.F.F.F.F. .< q.p x 4.l.x.h.0 1.u.: #.F.F.F.F.F.F.F.F.F.",
"F.F.F.F.F.F.F.F.F.5.k b b M.F.F.F.1.e I z * 0.F.F.F.F.F.F.F.F.F.",
"F.F.F.F.F.F.F.F.F.v.$.8 y.! m S.F.n t 0.@ - c.F.F.F.F.F.F.F.F.F.",
"F.F.F.F.F.F.F.F.F.F.O.u F.$., ] S.y.e.F.4 q S.F.F.F.F.F.F.F.F.F.",
"F.F.F.F.F.F.F.F.F.F.@.+ S { / 7 f ^ ] A & T F.F.F.F.F.F.F.F.F.F.",
"F.F.F.F.F.F.F.F.F.F.k.y   ; ` a.Q c h F <.C.F.F.F.F.F.F.F.F.F.F.",
"F.F.F.F.F.F.F.F.F.F.F.v.B $ ) F.F.} C 9.F.F.F.F.F.F.F.F.F.F.F.F.",
"F.F.F.F.F.F.F.F.F.F.F.F.A.! # D V % ~ B.F.F.F.F.F.F.F.F.F.F.F.F.",
"F.F.F.F.F.F.F.F.F.F.F.F.F.F.*.= > :.F.F.F.F.F.F.F.F.F.F.F.F.F.F.",
"F.F.F.F.F.F.F.F.F.F.F.F.F.F.F.y.i.F.F.F.F.F.F.F.F.F.F.F.F.F.F.F.",
"F.F.F.F.F.F.F.F.F.F.F.F.F.F.F.F.F.F.F.F.F.F.F.F.F.F.F.F.F.F.F.F.",
"F.F.F.F.F.F.N.x.F.V.y.s.D.f.w.v.Z.u.a.Z.b.A.b.A.p.y.C.F.F.F.F.F.",
"F.F.F.F.F.F.' Z M.o.j ~ f.D N ,.,.j Y d.) z._ e.x H g.F.F.F.F.F.",
"F.F.F.F.F.f.M v ;.{ g / a.A m | &.d R k.J ( U g.G k 7.F.F.F.F.F.",
"F.F.F.F.F.x.r.j.i.z.=.4.Z.3.$.a.n.-.1.C.6.+.t.M.>.;.m.F.F.F.F.F."
};
